<svg width="622" height="623" viewBox="0 0 622 623" fill="none" xmlns="http://www.w3.org/2000/svg">
  <path d="M198.805 125.392H363.9V227.683C363.9 229.766 363.072 231.763 361.597 233.236C360.122 234.709 358.121 235.536 356.035 235.536H206.669C204.583 235.536 202.583 234.709 201.108 233.236C199.633 231.763 198.805 229.766 198.805 227.683V125.392Z" fill="white"/>
  <path d="M356.035 236.466H206.669C204.335 236.46 202.097 235.53 200.448 233.88C198.799 232.23 197.873 229.994 197.873 227.663V125.392C197.873 125.144 197.971 124.905 198.145 124.727C198.319 124.55 198.556 124.447 198.805 124.442H363.9C364.153 124.442 364.395 124.542 364.573 124.72C364.752 124.898 364.852 125.14 364.852 125.392V227.663C364.852 229.997 363.923 232.237 362.27 233.887C360.616 235.538 358.374 236.466 356.035 236.466ZM199.757 126.343V227.601C199.757 229.433 200.484 231.191 201.78 232.488C203.076 233.786 204.834 234.518 206.669 234.523H356.035C357.874 234.523 359.638 233.794 360.938 232.496C362.238 231.197 362.969 229.437 362.969 227.601V126.343H199.757Z" fill="#231F20"/>
  <path d="M206.669 110.761H356.035C358.121 110.761 360.122 111.589 361.597 113.061C363.072 114.534 363.9 116.531 363.9 118.614V125.392H198.805V118.614C198.805 116.531 199.633 114.534 201.108 113.061C202.583 111.589 204.583 110.761 206.669 110.761Z" fill="white"/>
  <path d="M363.9 126.343H198.805C198.556 126.337 198.319 126.235 198.145 126.057C197.971 125.879 197.873 125.641 197.873 125.392V118.614C197.879 116.287 198.807 114.056 200.456 112.41C202.104 110.764 204.338 109.837 206.669 109.832H356.035C358.363 109.842 360.592 110.772 362.236 112.417C363.88 114.062 364.805 116.29 364.811 118.614V125.392C364.811 125.637 364.716 125.873 364.547 126.05C364.377 126.227 364.145 126.332 363.9 126.343ZM199.757 124.442H362.969V118.614C362.963 116.782 362.23 115.026 360.931 113.732C359.631 112.439 357.871 111.712 356.035 111.712H206.669C204.838 111.717 203.083 112.446 201.787 113.74C200.492 115.033 199.762 116.785 199.757 118.614V124.442Z" fill="#231F20"/>
  <path d="M239.452 166.329C245.328 166.329 250.09 161.574 250.09 155.707C250.09 149.841 245.328 145.086 239.452 145.086C233.577 145.086 228.814 149.841 228.814 155.707C228.814 161.574 233.577 166.329 239.452 166.329Z" fill="black"/>
  <path d="M220.122 187.821C220.286 182.808 222.396 178.056 226.005 174.569C229.614 171.081 234.44 169.131 239.463 169.131C244.486 169.131 249.311 171.081 252.921 174.569C256.53 178.056 258.639 182.808 258.804 187.821H220.122Z" fill="black"/>
  <path d="M323.252 166.329C329.128 166.329 333.89 161.574 333.89 155.707C333.89 149.841 329.128 145.086 323.252 145.086C317.377 145.086 312.614 149.841 312.614 155.707C312.614 161.574 317.377 166.329 323.252 166.329Z" fill="black"/>
  <path d="M303.922 187.821C304.086 182.808 306.196 178.056 309.805 174.569C313.414 171.081 318.24 169.131 323.263 169.131C328.285 169.131 333.111 171.081 336.72 174.569C340.33 178.056 342.439 182.808 342.604 187.821H303.922Z" fill="black"/>
  <path d="M299.514 156.658H274.678C274.425 156.658 274.183 156.558 274.005 156.38C273.826 156.201 273.726 155.96 273.726 155.708C273.726 155.455 273.826 155.214 274.005 155.035C274.183 154.857 274.425 154.757 274.678 154.757H297.32L292.373 149.57C292.286 149.484 292.216 149.381 292.169 149.267C292.121 149.154 292.097 149.032 292.097 148.909C292.097 148.786 292.121 148.664 292.169 148.551C292.216 148.437 292.286 148.334 292.373 148.248C292.554 148.074 292.795 147.978 293.046 147.978C293.297 147.978 293.537 148.074 293.719 148.248L300.176 155.046C300.306 155.176 300.393 155.343 300.426 155.524C300.46 155.704 300.437 155.891 300.362 156.059C300.294 156.23 300.178 156.378 300.027 156.484C299.876 156.591 299.698 156.651 299.514 156.658Z" fill="#231F20"/>
  <path d="M293.305 162.713C293.048 162.71 292.802 162.606 292.622 162.424C292.443 162.245 292.343 162.004 292.343 161.752C292.343 161.5 292.443 161.259 292.622 161.08L298.831 155.046C299.014 154.882 299.254 154.795 299.5 154.803C299.746 154.811 299.979 154.915 300.151 155.091C300.322 155.268 300.418 155.504 300.419 155.75C300.42 155.996 300.325 156.232 300.155 156.41L293.946 162.444C293.774 162.611 293.545 162.707 293.305 162.713Z" fill="#231F20"/>
  <path d="M287.737 164.614H262.901C262.718 164.617 262.537 164.566 262.382 164.467C262.228 164.367 262.106 164.224 262.032 164.056C261.958 163.885 261.936 163.695 261.97 163.512C262.003 163.328 262.089 163.158 262.219 163.023L268.676 156.245C268.76 156.15 268.863 156.073 268.978 156.019C269.093 155.964 269.218 155.933 269.345 155.928C269.472 155.922 269.598 155.942 269.718 155.986C269.837 156.03 269.946 156.098 270.039 156.185C270.131 156.272 270.206 156.376 270.257 156.493C270.309 156.609 270.336 156.734 270.338 156.861C270.341 156.988 270.317 157.114 270.27 157.232C270.223 157.349 270.152 157.457 270.062 157.547L265.095 162.713H287.737C287.988 162.718 288.227 162.82 288.405 162.997C288.582 163.174 288.684 163.413 288.689 163.664C288.689 163.916 288.589 164.157 288.41 164.336C288.232 164.514 287.99 164.614 287.737 164.614Z" fill="#231F20"/>
  <path d="M269.09 170.648C268.97 170.65 268.851 170.627 268.741 170.581C268.63 170.535 268.531 170.466 268.448 170.38L262.239 164.366C262.066 164.185 261.969 163.945 261.969 163.694C261.969 163.444 262.066 163.204 262.239 163.023C262.418 162.845 262.66 162.745 262.912 162.745C263.164 162.745 263.406 162.845 263.584 163.023L269.793 169.057C269.881 169.144 269.951 169.246 269.998 169.36C270.046 169.474 270.07 169.595 270.07 169.718C270.07 169.841 270.046 169.963 269.998 170.077C269.951 170.19 269.881 170.293 269.793 170.38C269.7 170.469 269.59 170.539 269.469 170.585C269.348 170.631 269.219 170.652 269.09 170.648Z" fill="#231F20"/>
  <path d="M330.579 200.323H232.126C231.851 200.323 231.588 200.214 231.394 200.02C231.2 199.827 231.091 199.564 231.091 199.29C231.096 199.017 231.207 198.758 231.4 198.565C231.593 198.372 231.853 198.262 232.126 198.257H330.579C330.853 198.257 331.117 198.365 331.311 198.559C331.505 198.753 331.614 199.016 331.614 199.29C331.614 199.564 331.505 199.827 331.311 200.02C331.117 200.214 330.853 200.323 330.579 200.323Z" fill="#D1D3D4"/>
  <path d="M330.579 207.308H232.126C231.851 207.308 231.588 207.199 231.394 207.005C231.2 206.811 231.091 206.548 231.091 206.274C231.096 206.002 231.207 205.742 231.4 205.55C231.593 205.357 231.853 205.247 232.126 205.241H330.579C330.853 205.241 331.117 205.35 331.311 205.544C331.505 205.738 331.614 206 331.614 206.274C331.614 206.548 331.505 206.811 331.311 207.005C331.117 207.199 330.853 207.308 330.579 207.308Z" fill="#D1D3D4"/>
  <path d="M320.458 214.375H232.126C231.851 214.375 231.588 214.266 231.394 214.072C231.2 213.879 231.091 213.616 231.091 213.342C231.096 213.069 231.207 212.81 231.4 212.617C231.593 212.424 231.853 212.314 232.126 212.309H320.458C320.731 212.314 320.991 212.424 321.184 212.617C321.377 212.81 321.488 213.069 321.493 213.342C321.493 213.616 321.384 213.879 321.19 214.072C320.996 214.266 320.733 214.375 320.458 214.375Z" fill="#D1D3D4"/>
  <path d="M210.415 120.598C211.81 120.598 212.94 119.469 212.94 118.077C212.94 116.684 211.81 115.556 210.415 115.556C209.021 115.556 207.89 116.684 207.89 118.077C207.89 119.469 209.021 120.598 210.415 120.598Z" fill="black"/>
  <path d="M219.315 120.598C220.709 120.598 221.84 119.469 221.84 118.077C221.84 116.684 220.709 115.556 219.315 115.556C217.92 115.556 216.79 116.684 216.79 118.077C216.79 119.469 217.92 120.598 219.315 120.598Z" fill="#D1D3D4"/>
  <path d="M228.214 120.598C229.609 120.598 230.739 119.469 230.739 118.077C230.739 116.684 229.609 115.556 228.214 115.556C226.82 115.556 225.689 116.684 225.689 118.077C225.689 119.469 226.82 120.598 228.214 120.598Z" fill="#D1D3D4"/>
  <path d="M389.46 115.948H602.509V366.985C602.509 369.726 601.419 372.354 599.478 374.291C597.538 376.229 594.906 377.318 592.161 377.318H399.788C397.043 377.318 394.411 376.229 392.471 374.291C390.53 372.354 389.44 369.726 389.44 366.985V115.948H389.46Z" fill="white"/>
  <path d="M592.161 378.351H399.684C396.669 378.345 393.779 377.146 391.649 375.015C389.518 372.884 388.322 369.996 388.322 366.985V115.948C388.322 115.674 388.431 115.412 388.625 115.218C388.819 115.024 389.082 114.915 389.357 114.915H602.509C602.784 114.915 603.047 115.024 603.241 115.218C603.435 115.412 603.544 115.674 603.544 115.948V366.985C603.539 369.998 602.338 372.886 600.204 375.016C598.071 377.146 595.178 378.345 592.161 378.351ZM390.495 116.982V367.027C390.495 369.489 391.473 371.851 393.216 373.595C394.958 375.338 397.321 376.32 399.788 376.326H592.265C594.733 376.32 597.099 375.339 598.844 373.596C600.59 371.853 601.573 369.491 601.578 367.027V116.982H390.495Z" fill="#231F20"/>
  <path d="M559.068 356.632H432.819C430.165 356.611 427.626 355.551 425.745 353.681C423.865 351.811 422.793 349.28 422.761 346.63V340.637C422.766 337.959 423.834 335.392 425.731 333.498C427.628 331.604 430.199 330.538 432.881 330.532H559.13C561.814 330.532 564.388 331.597 566.286 333.492C568.184 335.387 569.25 337.957 569.25 340.637V346.63C569.223 349.303 568.136 351.856 566.228 353.731C564.319 355.605 561.745 356.649 559.068 356.632ZM432.819 332.599C430.695 332.615 428.663 333.469 427.167 334.975C425.67 336.481 424.83 338.516 424.83 340.637V346.63C424.836 348.759 425.687 350.798 427.196 352.301C428.705 353.804 430.75 354.648 432.881 354.648H559.13C561.261 354.648 563.306 353.804 564.815 352.301C566.324 350.798 567.175 348.759 567.181 346.63V340.637C567.181 338.505 566.332 336.461 564.823 334.953C563.313 333.446 561.265 332.599 559.13 332.599H432.819Z" fill="#231F20"/>
  <path d="M436.814 184.742H419.925V306.272H436.814V184.742Z" fill="black"/>
  <path d="M467.983 213.197H451.094V306.251H467.983V213.197Z" fill="black"/>
  <path d="M499.131 194.661H482.242V306.272H499.131V194.661Z" fill="black"/>
  <path d="M530.3 228.283H513.411V306.251H530.3V228.283Z" fill="black"/>
  <path d="M561.468 194.661H544.58V306.272H561.468V194.661Z" fill="black"/>
  <path d="M561.075 137.915H532.452C532.177 137.915 531.914 137.806 531.72 137.612C531.526 137.419 531.417 137.156 531.417 136.882C531.417 136.608 531.526 136.345 531.72 136.151C531.914 135.957 532.177 135.849 532.452 135.849H561.034C561.306 135.854 561.567 135.964 561.759 136.157C561.952 136.35 562.063 136.609 562.068 136.882C562.069 137.149 561.965 137.406 561.78 137.598C561.595 137.791 561.342 137.904 561.075 137.915Z" fill="#231F20"/>
  <path d="M551.079 148.557H532.452C532.177 148.557 531.914 148.449 531.72 148.255C531.526 148.061 531.417 147.798 531.417 147.524C531.417 147.25 531.526 146.987 531.72 146.794C531.914 146.6 532.177 146.491 532.452 146.491H551.079C551.353 146.491 551.616 146.6 551.81 146.794C552.004 146.987 552.113 147.25 552.113 147.524C552.113 147.798 552.004 148.061 551.81 148.255C551.616 148.449 551.353 148.557 551.079 148.557Z" fill="#231F20"/>
  <path d="M523.946 195.921C514.922 195.921 507.057 185.878 500.724 177.778C496.585 172.529 492.715 167.445 490.128 167.445C487.189 167.445 483.132 169.863 478.848 172.343C473.012 175.711 466.43 179.534 460.221 179.183C448.611 178.563 426.797 152.98 425.886 151.885C425.8 151.787 425.735 151.674 425.694 151.552C425.653 151.429 425.637 151.299 425.646 151.171C425.656 151.042 425.691 150.916 425.75 150.801C425.809 150.686 425.89 150.583 425.99 150.5C426.179 150.318 426.431 150.217 426.693 150.217C426.956 150.217 427.208 150.318 427.397 150.5C427.604 150.769 449.563 176.538 460.325 177.116C465.996 177.447 472.329 173.769 477.917 170.524C482.429 167.92 486.692 165.461 490.128 165.358C493.563 165.255 497.558 170.152 502.401 176.372C508.61 184.287 516.267 194.124 524.567 193.731C531.748 193.38 535.184 187.139 538.826 180.526C542.469 173.913 545.925 167.59 553.19 166.205C553.435 166.186 553.679 166.258 553.875 166.408C554.07 166.558 554.202 166.775 554.246 167.018C554.29 167.26 554.242 167.509 554.112 167.718C553.982 167.927 553.778 168.08 553.542 168.148C547.208 169.346 543.98 175.236 540.544 181.477C536.819 188.275 532.949 195.301 524.67 195.715L523.946 195.921Z" fill="#D1D3D4"/>
  <path d="M575.915 307.243H406.204C406.074 307.243 405.946 307.217 405.827 307.167C405.707 307.117 405.599 307.044 405.508 306.951C405.418 306.859 405.347 306.749 405.299 306.629C405.251 306.509 405.228 306.38 405.231 306.251C405.241 305.999 405.348 305.76 405.529 305.583C405.709 305.407 405.951 305.306 406.204 305.301H575.915C576.178 305.301 576.431 305.405 576.617 305.591C576.803 305.777 576.908 306.029 576.908 306.292C576.905 306.42 576.877 306.546 576.826 306.663C576.775 306.779 576.701 306.885 576.608 306.973C576.516 307.062 576.407 307.131 576.288 307.177C576.169 307.223 576.042 307.246 575.915 307.243Z" fill="#D1D3D4"/>
  <path d="M426.9 155.046C426.147 155.046 425.411 154.823 424.784 154.405C424.158 153.988 423.67 153.394 423.382 152.699C423.094 152.004 423.018 151.24 423.165 150.502C423.312 149.765 423.675 149.087 424.207 148.555C424.74 148.024 425.419 147.661 426.157 147.515C426.896 147.368 427.662 147.443 428.358 147.731C429.053 148.019 429.648 148.506 430.067 149.131C430.485 149.757 430.708 150.492 430.708 151.244C430.708 152.252 430.307 153.22 429.593 153.933C428.879 154.646 427.91 155.046 426.9 155.046ZM426.9 149.425C426.535 149.425 426.178 149.534 425.875 149.737C425.571 149.94 425.335 150.228 425.197 150.566C425.058 150.903 425.022 151.274 425.095 151.631C425.168 151.988 425.346 152.316 425.605 152.572C425.865 152.829 426.195 153.002 426.554 153.071C426.912 153.14 427.283 153.1 427.62 152.958C427.956 152.815 428.242 152.576 428.442 152.271C428.642 151.966 428.746 151.609 428.742 151.244C428.742 151.003 428.694 150.765 428.602 150.543C428.509 150.321 428.373 150.12 428.201 149.951C428.03 149.782 427.827 149.648 427.604 149.558C427.38 149.468 427.141 149.423 426.9 149.425Z" fill="#D1D3D4"/>
  <path d="M553.148 171.186C552.396 171.181 551.662 170.955 551.038 170.535C550.415 170.114 549.93 169.519 549.645 168.824C549.36 168.129 549.287 167.365 549.437 166.629C549.586 165.893 549.95 165.217 550.484 164.687C551.017 164.158 551.696 163.798 552.434 163.652C553.172 163.507 553.936 163.584 554.631 163.872C555.326 164.161 555.919 164.648 556.337 165.273C556.754 165.898 556.977 166.632 556.977 167.383C556.972 168.394 556.566 169.361 555.848 170.073C555.131 170.786 554.16 171.186 553.148 171.186ZM553.148 165.544C552.784 165.544 552.428 165.652 552.125 165.854C551.822 166.056 551.586 166.343 551.447 166.679C551.307 167.015 551.271 167.385 551.342 167.742C551.413 168.099 551.588 168.426 551.846 168.684C552.103 168.941 552.432 169.116 552.789 169.187C553.146 169.258 553.517 169.222 553.853 169.082C554.19 168.943 554.478 168.707 554.68 168.405C554.882 168.103 554.99 167.747 554.99 167.383C554.99 166.895 554.796 166.428 554.451 166.083C554.105 165.738 553.637 165.544 553.148 165.544Z" fill="#D1D3D4"/>
  <path d="M399.788 94.5188H592.161C594.906 94.5188 597.538 95.6074 599.478 97.5451C601.419 99.4828 602.509 102.111 602.509 104.851V115.907H389.46V104.851C389.46 102.114 390.548 99.4895 392.484 97.5524C394.42 95.6153 397.047 94.5243 399.788 94.5188Z" fill="white"/>
  <path d="M602.509 116.982H389.46C389.186 116.982 388.923 116.873 388.729 116.679C388.534 116.485 388.425 116.222 388.425 115.948V104.851C388.425 101.84 389.622 98.9527 391.752 96.8218C393.882 94.6909 396.772 93.4911 399.788 93.4856H592.265C595.282 93.4911 598.174 94.6903 600.308 96.8206C602.441 98.9509 603.642 101.839 603.648 104.851V115.907C603.654 116.055 603.629 116.203 603.573 116.341C603.518 116.478 603.433 116.602 603.325 116.704C603.217 116.806 603.088 116.884 602.947 116.932C602.807 116.98 602.657 116.997 602.509 116.982ZM390.495 114.915H601.475V104.851C601.469 102.387 600.486 100.025 598.741 98.2818C596.995 96.539 594.63 95.5575 592.161 95.5521H399.684C397.218 95.5576 394.854 96.5397 393.112 98.283C391.37 100.026 390.392 102.389 390.392 104.851L390.495 114.915Z" fill="#231F20"/>
  <path d="M169.623 222.29H27.0863C22.8913 222.29 19.4907 225.685 19.4907 229.874V408.212C19.4907 412.4 22.8913 415.796 27.0863 415.796H169.623C173.818 415.796 177.218 412.4 177.218 408.212V229.874C177.218 225.685 173.818 222.29 169.623 222.29Z" fill="white"/>
  <path d="M169.623 416.891H27.0863C24.7974 416.891 22.6022 415.983 20.9837 414.367C19.3651 412.751 18.4559 410.559 18.4559 408.274V229.874C18.4613 227.59 19.3724 225.401 20.9897 223.786C22.607 222.172 24.799 221.262 27.0863 221.257H169.623C171.91 221.262 174.102 222.172 175.719 223.786C177.337 225.401 178.248 227.59 178.253 229.874V408.212C178.261 409.348 178.044 410.476 177.614 411.528C177.184 412.581 176.55 413.538 175.747 414.345C174.945 415.152 173.991 415.792 172.94 416.229C171.889 416.666 170.761 416.891 169.623 416.891ZM27.0863 223.323C25.3479 223.328 23.6824 224.02 22.4532 225.248C21.2239 226.475 20.531 228.138 20.5255 229.874V408.212C20.5173 409.077 20.681 409.936 21.007 410.737C21.333 411.539 21.815 412.269 22.425 412.884C23.0351 413.499 23.7611 413.987 24.5612 414.32C25.3612 414.653 26.2195 414.824 27.0863 414.824H169.623C171.363 414.824 173.031 414.134 174.262 412.906C175.492 411.677 176.183 410.011 176.183 408.274V229.874C176.178 228.138 175.485 226.475 174.256 225.248C173.027 224.02 171.361 223.328 169.623 223.323H27.0863Z" fill="#231F20"/>
  <path d="M137.46 374.92H52.4601C52.1857 374.92 51.9225 374.812 51.7284 374.618C51.5343 374.424 51.4253 374.161 51.4253 373.887C51.4306 373.615 51.5413 373.355 51.7342 373.162C51.9272 372.97 52.1873 372.859 52.4601 372.854H137.46C137.735 372.854 137.998 372.963 138.192 373.157C138.386 373.35 138.495 373.613 138.495 373.887C138.495 374.161 138.386 374.424 138.192 374.618C137.998 374.812 137.735 374.92 137.46 374.92Z" fill="#D1D3D4"/>
  <path d="M96.4193 388.787H52.4601C52.1873 388.781 51.9272 388.671 51.7342 388.478C51.5413 388.285 51.4306 388.026 51.4253 387.753C51.4253 387.479 51.5343 387.217 51.7284 387.023C51.9225 386.829 52.1857 386.72 52.4601 386.72H96.4193C96.6938 386.72 96.957 386.829 97.1511 387.023C97.3451 387.217 97.4542 387.479 97.4542 387.753C97.4489 388.026 97.3381 388.285 97.1452 388.478C96.9523 388.671 96.6921 388.781 96.4193 388.787Z" fill="#D1D3D4"/>
  <path d="M57.717 265.851C70.1349 278.25 82.5045 290.608 94.8258 302.924C95.0144 303.129 95.2453 303.291 95.5026 303.398C95.7599 303.505 96.0374 303.555 96.3159 303.544H153.169C152.858 312.312 150.44 320.878 146.119 328.518C141.799 336.158 135.703 342.65 128.344 347.445C120.985 352.241 112.58 355.2 103.836 356.073C95.0926 356.947 86.2667 355.709 78.1024 352.464C69.9381 349.219 62.6746 344.062 56.924 337.428C51.1733 330.794 47.104 322.876 45.059 314.343C43.014 305.81 43.0532 296.911 45.1733 288.397C47.2933 279.882 51.4322 272.001 57.241 265.417L57.717 265.851Z" fill="black"/>
  <path d="M100.331 246.778V299.638H100.869L152.114 299.514C153.252 299.514 153.252 299.514 153.169 298.378C152.523 288.324 149.134 278.639 143.37 270.37C137.606 262.102 129.687 255.565 120.469 251.469C114.842 249.015 108.85 247.5 102.732 246.984L100.331 246.778Z" fill="#D1D3D4"/>
  <path d="M96.4193 298.936V246.819C90.2638 247.138 84.1957 248.414 78.4341 250.601C71.542 253.323 65.2548 257.375 59.9315 262.524L96.4193 298.936Z" fill="#D1D3D4"/>
  <path d="M260.708 270.79C248.517 267.133 242.081 252.894 238.832 241.57C235.189 228.696 230.905 218.157 236.1 204.745C237.279 201.666 239.183 198.546 242.309 197.554C243.089 197.442 243.84 197.182 244.523 196.789C245.066 196.253 245.471 195.594 245.703 194.867C253.112 177.426 274.078 176.951 289.807 179.41C298.913 180.836 310.731 184.99 313.566 194.33C318.761 211.544 314.374 230.266 304.812 245.145C295.871 259.135 278.962 276.37 260.708 270.79Z" fill="white"/>
  <path d="M267.682 272.857C265.221 272.863 262.772 272.501 260.418 271.782C247.69 267.959 241.108 253.411 237.838 241.859C237.424 240.392 237.01 238.946 236.576 237.52C233.264 226.299 230.367 216.586 235.127 204.456C236.803 200.096 239.163 197.471 242.081 196.645L242.702 196.5C243.207 196.504 243.697 196.324 244.078 195.993C244.459 195.661 244.706 195.202 244.771 194.702C252.491 176.6 273.746 175.897 290.055 178.48C296.264 179.451 311.29 182.944 314.663 194.123C319.589 210.49 316.36 229.254 305.785 245.786C296.823 259.569 282.708 272.857 267.682 272.857ZM276.872 179.369C264.454 179.369 252.036 182.882 246.717 195.26C246.439 196.158 245.925 196.965 245.227 197.595C244.611 198.028 243.902 198.311 243.157 198.422L242.64 198.566C240.384 199.186 238.5 201.398 237.052 205.117C232.581 216.669 235.355 226.071 238.563 236.941C238.997 238.367 239.411 239.814 239.846 241.301C242.971 252.336 249.18 266.265 261.018 269.819C277.575 274.758 294.132 260.024 304.005 244.587C314.249 228.634 317.395 210.428 312.635 194.619C309.593 184.576 295.581 181.353 289.703 180.443C285.46 179.756 281.17 179.396 276.872 179.369Z" fill="#231F20"/>
  <path d="M316.091 235.949C316.091 235.949 329.151 252.254 327.102 256.077C325.053 259.9 316.94 258.143 316.94 258.143" fill="white"/>
  <path d="M320.81 259.652C319.42 259.653 318.033 259.515 316.671 259.238C316.396 259.184 316.155 259.022 316 258.79C315.845 258.557 315.788 258.273 315.843 257.999C315.898 257.725 316.06 257.484 316.292 257.329C316.525 257.173 316.81 257.117 317.085 257.172C319.154 257.585 324.763 258.123 326.129 255.56C327.205 253.494 321.286 244.132 315.222 236.548C315.049 236.334 314.968 236.06 314.995 235.785C315.022 235.511 315.156 235.258 315.367 235.081C315.587 234.916 315.861 234.841 316.135 234.872C316.408 234.903 316.659 235.037 316.836 235.247C320.003 239.214 330.165 252.419 327.95 256.531C326.667 259.073 323.418 259.652 320.81 259.652Z" fill="#231F20"/>
  <path d="M311.538 213.218C319.403 218.508 318.43 231.32 319.113 239.524C320.065 251.055 320.755 262.614 321.183 274.2C321.452 281.536 302.556 283.416 298.975 281.536L304.563 310.157L263.398 298.502L261.639 265.045C261.639 265.045 274.057 263.991 280.266 248.513C286.475 233.035 283.929 210.077 283.929 210.077C283.929 210.077 303.86 208.031 311.538 213.218Z" fill="white"/>
  <path d="M304.563 311.19H304.274L263.067 299.535C262.858 299.479 262.672 299.36 262.535 299.193C262.397 299.026 262.316 298.821 262.301 298.605L260.542 265.128C260.53 264.864 260.62 264.605 260.793 264.405C260.967 264.206 261.21 264.08 261.473 264.053C261.97 264.053 273.457 262.834 279.19 248.1C285.088 232.932 282.811 210.366 282.791 210.139C282.774 209.865 282.854 209.594 283.018 209.374C283.105 209.269 283.212 209.182 283.333 209.118C283.454 209.054 283.586 209.015 283.722 209.002C284.55 209.002 304.232 207.08 312.118 212.391C319.092 217.103 319.527 227.022 319.879 235.123C319.879 236.693 320.024 238.202 320.148 239.586C321.1 251.117 321.804 262.793 322.218 274.303C322.208 275.47 321.87 276.611 321.24 277.595C320.61 278.578 319.715 279.364 318.658 279.862C313.835 282.879 304.729 283.892 300.3 283.148L305.578 310.012C305.61 310.187 305.599 310.367 305.545 310.537C305.491 310.706 305.395 310.86 305.267 310.983C305.062 311.128 304.814 311.201 304.563 311.19ZM264.33 297.717L303.218 308.71L297.961 281.743C297.917 281.551 297.93 281.35 298 281.166C298.07 280.982 298.194 280.823 298.355 280.709C298.52 280.609 298.71 280.556 298.903 280.556C299.096 280.556 299.286 280.609 299.451 280.709C301.749 281.929 312.387 281.288 317.561 278.064C319.341 276.948 320.21 275.688 320.148 274.324C319.734 262.834 319.03 251.179 318.078 239.69C317.954 238.284 317.892 236.755 317.809 235.143C317.478 227.621 317.064 218.26 310.959 214.148C304.75 209.891 289.083 210.717 284.943 211.007C285.336 215.739 286.537 234.978 281.114 248.885C275.692 262.793 265.861 265.417 262.653 266.017L264.33 297.717Z" fill="#231F20"/>
  <path d="M320.127 265.624C320.127 265.624 308.786 265.624 306.074 250.332L320.127 265.624Z" fill="white"/>
  <path d="M320.127 266.657C320.003 266.657 307.875 266.471 305.039 250.518C304.997 250.247 305.062 249.971 305.22 249.747C305.379 249.523 305.618 249.37 305.888 249.319C306.157 249.271 306.434 249.331 306.659 249.486C306.884 249.641 307.038 249.878 307.088 250.146C309.593 264.363 319.713 264.611 320.127 264.611C320.402 264.611 320.665 264.72 320.859 264.914C321.053 265.108 321.162 265.371 321.162 265.645C321.157 265.915 321.045 266.173 320.852 266.362C320.658 266.551 320.398 266.657 320.127 266.657Z" fill="#231F20"/>
  <path d="M294.608 245.372C294.018 242.522 292.65 239.89 290.655 237.768C289.347 235.926 287.77 234.289 285.978 232.911C285.079 232.226 284.039 231.75 282.933 231.518C281.826 231.286 280.682 231.303 279.583 231.568C278.652 231.907 277.802 232.437 277.089 233.124C276.376 233.811 275.816 234.64 275.444 235.557C274.7 237.412 274.382 239.41 274.512 241.405C274.708 245.766 276.053 249.998 278.411 253.674C280.77 257.349 284.058 260.338 287.944 262.338L287.261 261.698" fill="white"/>
  <path d="M287.882 263.33C287.722 263.328 287.566 263.285 287.427 263.206C283.388 261.111 279.969 257.995 277.51 254.17C275.052 250.345 273.64 245.944 273.415 241.405C273.288 239.289 273.635 237.171 274.429 235.205C274.869 234.143 275.53 233.187 276.369 232.399C277.208 231.612 278.204 231.011 279.293 230.638C280.541 230.324 281.845 230.294 283.106 230.552C284.367 230.81 285.554 231.348 286.578 232.126C288.457 233.554 290.104 235.262 291.463 237.189C293.581 239.461 295.015 242.283 295.602 245.331C295.631 245.602 295.552 245.874 295.381 246.087C295.21 246.3 294.963 246.436 294.691 246.468C294.42 246.497 294.148 246.417 293.935 246.247C293.721 246.077 293.584 245.829 293.553 245.558C292.97 242.895 291.675 240.438 289.807 238.45C288.566 236.698 287.073 235.139 285.378 233.821C284.606 233.227 283.712 232.811 282.76 232.603C281.808 232.396 280.822 232.403 279.873 232.622C279.07 232.911 278.339 233.366 277.725 233.957C277.112 234.548 276.63 235.262 276.313 236.053C275.628 237.764 275.338 239.607 275.464 241.446C275.662 245.361 276.818 249.167 278.832 252.532C280.845 255.897 283.654 258.718 287.013 260.747C287.164 260.717 287.32 260.724 287.468 260.767C287.616 260.81 287.751 260.888 287.861 260.995L288.565 261.615C288.728 261.754 288.844 261.94 288.896 262.147C288.949 262.355 288.936 262.573 288.858 262.773C288.781 262.973 288.644 263.143 288.465 263.262C288.287 263.38 288.076 263.44 287.861 263.433L287.882 263.33Z" fill="#231F20"/>
  <path d="M298.975 281.536C298.975 281.536 288.855 279.469 283.681 273.063C283.681 273.063 285.502 288.355 301.024 292.075L298.975 281.536Z" fill="#231F20"/>
  <path d="M301.024 293.108H300.776C284.736 289.285 282.667 273.394 282.646 273.229C282.619 273.006 282.665 272.782 282.777 272.588C282.889 272.394 283.061 272.242 283.267 272.154C283.471 272.064 283.699 272.043 283.916 272.095C284.133 272.148 284.327 272.27 284.467 272.443C289.372 278.415 299.079 280.544 299.182 280.565C299.384 280.607 299.569 280.708 299.712 280.855C299.856 281.002 299.953 281.189 299.99 281.391L302.059 291.91C302.09 292.06 302.087 292.215 302.05 292.364C302.013 292.512 301.944 292.651 301.847 292.77C301.75 292.889 301.627 292.984 301.489 293.05C301.35 293.116 301.199 293.15 301.045 293.15L301.024 293.108ZM285.502 276.328C286.509 279.693 288.332 282.759 290.808 285.253C293.285 287.747 296.338 289.593 299.7 290.628L298.085 282.362C293.522 281.252 289.238 279.212 285.502 276.37V276.328Z" fill="#231F20"/>
  <path d="M310.424 228.694C310.601 226.418 310.014 224.517 309.113 224.448C308.213 224.378 307.34 226.167 307.164 228.442C306.988 230.718 307.575 232.619 308.475 232.689C309.376 232.758 310.248 230.97 310.424 228.694Z" fill="#231F20"/>
  <path d="M201.081 366.964L179.847 404.161L124.546 347.498C124.546 347.498 129.016 323.424 123.056 325.345C119.29 326.685 116.015 329.126 113.66 332.351C113.66 332.351 108.754 299.287 95.8399 310.157C82.9253 321.026 88.8652 340.121 98.6546 358.471C105.919 372.089 170.471 471.425 188.374 467.437C206.276 463.449 248.787 373.226 248.787 373.226L201.081 366.964Z" fill="white"/>
  <path d="M187.38 468.553C167.036 468.553 104.222 371.097 97.744 359.029C89.5896 343.716 80.4417 321.832 95.1776 309.433C97.9095 307.119 100.559 306.416 103.063 307.367C109.851 309.929 113.204 324.333 114.28 330.098C116.575 327.544 119.491 325.622 122.745 324.519C123.184 324.347 123.663 324.301 124.127 324.385C124.591 324.469 125.023 324.68 125.374 324.994C128.83 328.032 126.409 343.097 125.663 347.312L179.619 402.425L200.191 366.407C200.293 366.227 200.445 366.082 200.63 365.99C200.814 365.898 201.022 365.863 201.226 365.89L248.828 372.089C248.99 372.109 249.145 372.169 249.278 372.262C249.412 372.356 249.52 372.481 249.594 372.627C249.665 372.771 249.702 372.93 249.702 373.092C249.702 373.253 249.665 373.412 249.594 373.557C247.835 377.256 206.628 464.296 188.456 468.326C188.106 468.435 187.745 468.511 187.38 468.553ZM100.848 308.958C99.2 309.11 97.6594 309.843 96.5022 311.025C86.154 319.787 87.1267 334.748 99.586 358.079C107.471 372.875 171.527 470.186 188.146 466.528C204.206 462.953 241.957 385.15 247.255 374.156L201.723 368.163L180.82 404.761C180.739 404.899 180.629 405.017 180.496 405.107C180.364 405.196 180.212 405.255 180.054 405.277C179.895 405.3 179.732 405.283 179.581 405.229C179.429 405.175 179.293 405.085 179.184 404.967L123.884 348.304C123.771 348.184 123.688 348.039 123.641 347.881C123.594 347.723 123.585 347.557 123.615 347.395C125.022 339.769 126.119 328.259 124.091 326.482C124.091 326.482 123.863 326.296 123.449 326.482C119.911 327.761 116.83 330.054 114.591 333.074C114.47 333.245 114.302 333.377 114.107 333.455C113.912 333.532 113.699 333.55 113.494 333.508C113.293 333.461 113.111 333.355 112.971 333.204C112.831 333.053 112.739 332.864 112.708 332.661C111.859 326.937 108.382 311.624 102.359 309.392C101.888 309.152 101.375 309.005 100.848 308.958Z" fill="#231F20"/>
  <path d="M362.845 350.288C362.845 350.288 405.645 339.212 421.685 329.809C439.277 319.477 472.412 254.217 483.174 237.995C489.015 229.037 493.356 219.189 496.026 208.837C497.268 204.208 497.848 200.86 495.529 196.438C495.053 195.508 487.458 187.201 487.106 188.172C489.176 182.365 491.245 176.848 493.439 171.103C494.019 169.512 494.453 167.507 493.232 166.35C492.697 165.933 492.038 165.706 491.359 165.706C490.68 165.706 490.021 165.933 489.486 166.35C488.407 167.176 487.529 168.236 486.92 169.45L469.328 199.91C469.469 196.149 468.71 192.408 467.113 188.999C466.862 188.314 466.407 187.723 465.809 187.304C463.885 186.23 462.022 188.854 461.422 190.962C458.297 201.955 460.552 215.202 453.805 224.935C448.673 232.333 403.078 286.929 403.078 286.929L362.845 297.262" fill="white"/>
  <path d="M362.845 351.321C362.57 351.357 362.293 351.282 362.074 351.114C361.854 350.945 361.711 350.696 361.675 350.422C361.64 350.148 361.714 349.871 361.883 349.652C362.052 349.433 362.301 349.29 362.576 349.255C363.01 349.151 405.438 338.137 421.167 328.9C433.895 321.419 455.523 283.582 469.845 258.536C475.019 249.505 479.469 241.694 482.263 237.416C488.034 228.523 492.319 218.752 494.95 208.486C496.13 204.146 496.751 200.984 494.536 196.748C492.323 193.977 489.856 191.417 487.168 189.102C487.018 189.133 486.863 189.133 486.713 189.102C486.454 189.008 486.243 188.818 486.123 188.571C486.003 188.324 485.985 188.04 486.071 187.779C487.334 184.06 488.741 180.402 490.086 176.848C490.873 174.781 491.639 172.715 492.404 170.648C493.17 168.582 493.108 167.611 492.404 167.011C492.048 166.748 491.616 166.606 491.173 166.606C490.729 166.606 490.298 166.748 489.941 167.011C489.014 167.778 488.266 168.737 487.748 169.822L470.094 200.344C469.981 200.545 469.802 200.703 469.588 200.789C469.373 200.875 469.135 200.886 468.914 200.819C468.735 200.741 468.582 200.615 468.472 200.454C468.362 200.293 468.3 200.104 468.293 199.91C468.413 196.352 467.705 192.815 466.223 189.577C466.048 189.095 465.74 188.672 465.333 188.358C465.22 188.293 465.092 188.258 464.961 188.258C464.83 188.258 464.702 188.293 464.588 188.358C463.53 189.083 462.79 190.185 462.519 191.437C461.454 195.639 460.761 199.926 460.449 204.249C459.766 211.689 459.042 219.397 454.654 225.699C449.563 233.077 405.728 285.462 403.865 287.694C403.726 287.86 403.537 287.976 403.327 288.025L363.093 298.357C362.827 298.421 362.547 298.378 362.311 298.24C362.076 298.101 361.903 297.876 361.83 297.613C361.796 297.482 361.788 297.344 361.807 297.21C361.826 297.075 361.872 296.946 361.941 296.828C362.01 296.711 362.102 296.609 362.211 296.527C362.32 296.446 362.444 296.386 362.576 296.353L402.499 286.02C405.873 281.887 448.031 231.465 452.957 224.439C457.096 218.57 457.717 211.131 458.4 203.96C458.689 199.505 459.381 195.085 460.47 190.755C460.688 189.828 461.097 188.956 461.671 188.195C462.244 187.434 462.97 186.8 463.802 186.333C464.21 186.16 464.652 186.085 465.094 186.114C465.536 186.142 465.966 186.274 466.348 186.498C467.142 186.973 467.754 187.701 468.086 188.565C469.228 191.005 469.963 193.616 470.259 196.293L486.071 168.912C486.763 167.546 487.762 166.358 488.989 165.441C489.727 164.902 490.622 164.622 491.536 164.644C492.449 164.667 493.329 164.99 494.039 165.565C495.323 166.784 495.488 168.768 494.495 171.434C493.729 173.5 492.942 175.566 492.156 177.633C490.935 180.857 489.672 184.184 488.493 187.552C491.477 189.992 494.171 192.766 496.523 195.818C499.069 200.695 498.365 204.373 497.102 209.044C494.399 219.495 490.017 229.44 484.126 238.491C481.311 242.727 476.882 250.497 471.708 259.487C456.413 286.227 435.489 322.866 422.264 330.615C406.307 339.997 364.914 350.743 363.155 351.28L362.845 351.321Z" fill="#231F20"/>
  <path d="M373.089 528.481L359.699 467.685L226.145 503.456C226.145 503.456 226.414 513.437 226.786 528.44L373.089 528.481Z" fill="#231F20"/>
  <path d="M399.995 282.569C399.995 282.569 248.041 279.366 228.752 306.602C213.741 329.205 201.17 353.331 191.25 378.578L218.57 404.079C218.449 440.143 220.287 476.187 224.075 512.053C271.159 520.318 368.702 482.708 367.874 482.336L355.456 356.281L413.613 338.344L399.995 282.569Z" fill="black"/>
  <path d="M216.79 394.614C216.654 394.609 216.52 394.577 216.397 394.52C216.273 394.463 216.162 394.382 216.07 394.283C215.978 394.183 215.906 394.066 215.859 393.938C215.812 393.811 215.791 393.675 215.796 393.54C215.796 391.266 217.597 337.476 224.986 318.671C225.034 318.543 225.107 318.426 225.201 318.327C225.295 318.228 225.409 318.149 225.535 318.095C225.66 318.041 225.796 318.013 225.933 318.012C226.069 318.012 226.205 318.039 226.331 318.092C226.458 318.138 226.575 318.209 226.674 318.301C226.773 318.393 226.852 318.505 226.907 318.629C226.961 318.752 226.989 318.886 226.99 319.021C226.99 319.156 226.963 319.29 226.91 319.415C219.667 337.889 217.887 393.064 217.866 393.602C217.855 393.877 217.737 394.138 217.535 394.328C217.334 394.517 217.066 394.62 216.79 394.614Z" fill="#231F20"/>
  <path d="M334.656 362.728C334.431 362.732 334.212 362.661 334.032 362.526C333.852 362.391 333.722 362.201 333.663 361.984C333.592 361.719 333.629 361.436 333.764 361.197C333.899 360.957 334.123 360.78 334.387 360.703L377.332 348.511C377.607 348.434 377.9 348.469 378.149 348.609C378.397 348.748 378.58 348.981 378.657 349.255C378.734 349.529 378.698 349.822 378.558 350.07C378.419 350.318 378.186 350.501 377.912 350.577L334.946 362.77C334.847 362.776 334.749 362.762 334.656 362.728Z" fill="#231F20"/>
  <path d="M502.546 507.486H427.438C426.397 507.488 425.365 507.285 424.402 506.889C423.439 506.492 422.564 505.909 421.827 505.174C421.091 504.438 420.507 503.564 420.109 502.603C419.712 501.642 419.509 500.611 419.512 499.571V416.725C419.512 415.686 419.717 414.657 420.115 413.697C420.513 412.736 421.097 411.864 421.833 411.129C422.569 410.394 423.443 409.811 424.405 409.413C425.367 409.016 426.397 408.811 427.438 408.811H493.667L510.39 425.095V499.488C510.4 500.528 510.206 501.559 509.818 502.523C509.43 503.488 508.855 504.367 508.126 505.109C507.398 505.852 506.53 506.444 505.573 506.852C504.615 507.259 503.587 507.475 502.546 507.486Z" fill="white"/>
  <path d="M502.546 508.519H427.438C425.061 508.519 422.782 507.576 421.101 505.898C419.421 504.22 418.477 501.944 418.477 499.571V416.726C418.482 414.354 419.428 412.081 421.107 410.404C422.787 408.728 425.063 407.783 427.438 407.778H493.667C493.801 407.775 493.934 407.799 494.059 407.848C494.183 407.898 494.296 407.972 494.391 408.067L511.135 424.372C511.328 424.564 511.439 424.823 511.445 425.095V499.488C511.462 501.863 510.534 504.148 508.866 505.841C507.197 507.534 504.924 508.497 502.546 508.519ZM427.438 409.844C425.612 409.85 423.862 410.576 422.571 411.866C421.28 413.155 420.552 414.902 420.546 416.726V499.55C420.546 500.454 420.725 501.349 421.071 502.184C421.417 503.019 421.925 503.777 422.565 504.416C423.205 505.055 423.965 505.562 424.801 505.908C425.637 506.254 426.533 506.432 427.438 506.432H502.546C504.372 506.426 506.122 505.7 507.413 504.41C508.704 503.121 509.432 501.374 509.438 499.55V425.529L493.315 409.844H427.438Z" fill="#231F20"/>
  <path d="M402.375 108.984C404.295 108.984 405.852 107.43 405.852 105.513C405.852 103.595 404.295 102.041 402.375 102.041C400.454 102.041 398.898 103.595 398.898 105.513C398.898 107.43 400.454 108.984 402.375 108.984Z" fill="black"/>
  <path d="M414.441 108.984C416.361 108.984 417.918 107.43 417.918 105.513C417.918 103.595 416.361 102.041 414.441 102.041C412.521 102.041 410.964 103.595 410.964 105.513C410.964 107.43 412.521 108.984 414.441 108.984Z" fill="#D1D3D4"/>
  <path d="M426.507 108.984C428.427 108.984 429.984 107.43 429.984 105.513C429.984 103.595 428.427 102.041 426.507 102.041C424.587 102.041 423.03 103.595 423.03 105.513C423.03 107.43 424.587 108.984 426.507 108.984Z" fill="#D1D3D4"/>
  <path d="M493.129 160.006C492.892 160.004 492.664 159.916 492.487 159.758C492.289 159.589 492.165 159.35 492.142 159.091C492.118 158.832 492.198 158.574 492.363 158.373L501.304 147.793C501.398 147.682 501.515 147.593 501.648 147.532C501.78 147.471 501.924 147.441 502.07 147.442H524.442C524.717 147.442 524.98 147.55 525.174 147.744C525.368 147.938 525.477 148.201 525.477 148.475C525.477 148.749 525.368 149.012 525.174 149.205C524.98 149.399 524.717 149.508 524.442 149.508H502.483L493.832 159.841C493.627 159.982 493.376 160.041 493.129 160.006Z" fill="#D1D3D4"/>
  <path d="M493.75 408.811V425.591L510.472 425.095L493.75 408.811Z" fill="black"/>
  <path d="M493.729 426.624C493.466 426.622 493.213 426.519 493.025 426.335C492.92 426.241 492.837 426.126 492.78 425.998C492.722 425.87 492.693 425.731 492.694 425.591V408.811C492.698 408.607 492.76 408.409 492.874 408.241C492.988 408.072 493.148 407.94 493.336 407.86C493.521 407.779 493.727 407.756 493.926 407.793C494.125 407.829 494.309 407.925 494.453 408.067L511.197 424.371C511.337 424.515 511.433 424.696 511.473 424.892C511.512 425.089 511.494 425.293 511.419 425.479C511.344 425.665 511.217 425.826 511.053 425.941C510.888 426.056 510.694 426.121 510.493 426.128L493.77 426.624H493.729ZM494.764 411.27V424.537L507.989 424.144L494.764 411.27Z" fill="#231F20"/>
  <path d="M131.769 452.455H110.514C107.393 452.455 104.863 454.981 104.863 458.097V479.319C104.863 482.435 107.393 484.961 110.514 484.961H131.769C134.889 484.961 137.419 482.435 137.419 479.319V458.097C137.419 454.981 134.889 452.455 131.769 452.455Z" fill="black"/>
  <path d="M126.16 442.04H104.201C101.275 442.04 98.903 444.408 98.903 447.33V469.256C98.903 472.177 101.275 474.546 104.201 474.546H126.16C129.086 474.546 131.458 472.177 131.458 469.256V447.33C131.458 444.408 129.086 442.04 126.16 442.04Z" fill="white"/>
  <path d="M126.16 475.579H104.201C103.366 475.584 102.538 475.425 101.765 475.11C100.992 474.794 100.289 474.329 99.6963 473.742C99.1038 473.154 98.6336 472.455 98.3127 471.685C97.9919 470.915 97.8267 470.089 97.8267 469.256V447.33C97.8267 445.653 98.494 444.045 99.6817 442.859C100.869 441.673 102.48 441.007 104.16 441.007H126.119C126.95 441.007 127.774 441.17 128.542 441.488C129.311 441.806 130.009 442.272 130.597 442.859C131.185 443.446 131.652 444.143 131.97 444.91C132.288 445.677 132.452 446.5 132.452 447.33V469.256C132.452 470.926 131.79 472.528 130.612 473.712C129.433 474.897 127.833 475.568 126.16 475.579ZM104.201 443.073C103.638 443.068 103.079 443.174 102.557 443.385C102.035 443.597 101.56 443.91 101.16 444.305C100.759 444.701 100.442 445.172 100.225 445.691C100.008 446.211 99.8963 446.768 99.8964 447.33V469.256C99.8964 470.385 100.346 471.467 101.145 472.266C101.945 473.064 103.029 473.513 104.16 473.513H126.119C127.249 473.513 128.334 473.064 129.133 472.266C129.933 471.467 130.382 470.385 130.382 469.256V447.33C130.382 446.201 129.933 445.118 129.133 444.32C128.334 443.522 127.249 443.073 126.119 443.073H104.201Z" fill="#231F20"/>
  <path d="M460.511 488.99V484.114C458.731 483.618 457.013 483.266 455.337 482.688C452.103 481.678 449.304 479.611 447.39 476.819C445.815 474.354 445.015 471.475 445.092 468.553H454.633C454.696 470.21 455.303 471.8 456.362 473.078C457.421 474.355 458.872 475.249 460.49 475.62V462.684C458.566 462.126 456.662 461.61 454.757 461.01C452.682 460.413 450.781 459.329 449.211 457.849C447.582 456.221 446.504 454.125 446.127 451.856C445.574 449.097 445.781 446.24 446.727 443.59C447.43 441.681 448.545 439.951 449.994 438.522C451.443 437.093 453.189 436.001 455.109 435.324C456.694 434.826 458.303 434.412 459.932 434.084L460.511 433.96V427.223H469.452V427.864C469.452 429.703 469.452 431.563 469.452 433.402C469.452 433.857 469.597 434.001 470.032 434.105C473.072 434.692 475.917 436.028 478.31 437.99C480.857 440.067 482.545 443.011 483.05 446.256C483.215 447.144 483.277 448.053 483.401 448.983H473.695C473.679 447.661 473.279 446.372 472.545 445.271C471.81 444.171 470.772 443.307 469.555 442.784V454.873L470.611 455.121C473.235 455.628 475.791 456.439 478.227 457.539C480.057 458.331 481.636 459.605 482.795 461.225C483.954 462.845 484.651 464.75 484.809 466.734C485.38 470.432 484.482 474.207 482.305 477.253C480.513 479.73 477.997 481.592 475.102 482.584C473.302 483.204 471.439 483.597 469.514 484.134V488.866L460.511 488.99ZM469.473 464.42V475.662C470.927 475.449 472.294 474.842 473.426 473.905C474.009 473.431 474.476 472.828 474.789 472.145C475.102 471.461 475.254 470.715 475.232 469.964C475.21 469.213 475.015 468.477 474.662 467.813C474.309 467.149 473.809 466.575 473.198 466.135C471.998 465.478 470.753 464.904 469.473 464.42ZM460.49 452.91V442.04C459.319 442.552 458.179 443.131 457.075 443.776C456.442 444.226 455.93 444.827 455.586 445.525C455.242 446.222 455.077 446.993 455.106 447.77C455.135 448.546 455.356 449.303 455.751 449.973C456.145 450.643 456.7 451.205 457.365 451.608C458.338 452.124 459.394 452.476 460.49 452.93V452.91Z" fill="black"/>
  <path d="M160.744 138.556H69.5967V192.78H160.744V138.556Z" fill="#D1D3D4"/>
</svg>
