<svg width="1000" height="1000" viewBox="0 0 1000 1000" fill="none" xmlns="http://www.w3.org/2000/svg">
<path d="M515.146 205.174H340.636C336.659 205.179 332.847 206.761 330.035 209.573C327.223 212.385 325.641 216.197 325.636 220.174V608.024L323.636 608.634L280.826 621.744C278.797 622.362 276.606 622.151 274.733 621.155C272.86 620.16 271.459 618.462 270.836 616.434L143.496 200.484C142.876 198.455 143.088 196.263 144.083 194.39C145.079 192.516 146.778 191.115 148.806 190.494L214.776 170.294L406.026 111.754L471.996 91.5541C473 91.2451 474.055 91.1371 475.101 91.2364C476.147 91.3356 477.162 91.6401 478.09 92.1323C479.018 92.6246 479.84 93.295 480.509 94.1053C481.177 94.9155 481.679 95.8496 481.986 96.8541L514.536 203.174L515.146 205.174Z" fill="#D0EDE9"/>
<path d="M553.226 203.174L513.996 75.034C513.343 72.8989 512.276 70.9134 510.856 69.1909C509.436 67.4684 507.69 66.0426 505.718 64.9951C503.747 63.9475 501.588 63.2987 499.366 63.0858C497.143 62.8728 494.901 63.0999 492.766 63.754L400.016 92.144L208.776 150.694L116.026 179.094C111.718 180.417 108.11 183.395 105.995 187.376C103.88 191.356 103.431 196.013 104.746 200.324L238.826 638.254C239.894 641.734 242.05 644.78 244.976 646.945C247.903 649.11 251.446 650.28 255.086 650.284C256.771 650.285 258.447 650.032 260.056 649.534L323.636 630.074L325.636 629.454V627.364L323.636 627.974L259.466 647.624C255.663 648.783 251.555 648.387 248.044 646.521C244.533 644.656 241.905 641.474 240.736 637.674L106.667 199.734C106.088 197.851 105.886 195.872 106.073 193.911C106.26 191.95 106.832 190.045 107.756 188.305C108.68 186.565 109.939 185.025 111.459 183.772C112.979 182.519 114.732 181.578 116.616 181.004L209.366 152.604L400.606 94.064L493.356 65.664C494.786 65.2278 496.272 65.0054 497.766 65.004C500.973 65.0112 504.094 66.0452 506.671 67.9544C509.248 69.8637 511.146 72.5479 512.086 75.614L551.136 203.174L551.756 205.174H553.836L553.226 203.174Z" fill="#3F3D56"/>
<path d="M226.681 190.821C224.754 190.819 222.877 190.2 221.328 189.055C219.778 187.909 218.636 186.296 218.07 184.454L205.189 142.382C204.843 141.252 204.723 140.065 204.836 138.889C204.949 137.712 205.292 136.569 205.847 135.525C206.401 134.482 207.156 133.557 208.067 132.805C208.979 132.053 210.03 131.488 211.16 131.142L387.099 77.2785C389.382 76.582 391.847 76.8196 393.955 77.939C396.062 79.0584 397.639 80.9682 398.34 83.2492L411.221 125.321C411.917 127.604 411.679 130.069 410.559 132.176C409.44 134.284 407.531 135.861 405.25 136.562L229.31 190.426C228.458 190.687 227.572 190.82 226.681 190.821Z" fill="#00BFA6"/>
<path d="M294.154 107.955C305.199 107.955 314.154 99.0002 314.154 87.9546C314.154 76.9089 305.199 67.9546 294.154 67.9546C283.108 67.9546 274.154 76.9089 274.154 87.9546C274.154 99.0002 283.108 107.955 294.154 107.955Z" fill="#00BFA6"/>
<path d="M294.154 100.619C301.148 100.619 306.818 94.9491 306.818 87.9547C306.818 80.9602 301.148 75.29 294.154 75.29C287.159 75.29 281.489 80.9602 281.489 87.9547C281.489 94.9491 287.159 100.619 294.154 100.619Z" fill="white"/>
<path d="M706.636 645.174H368.636C366.383 645.171 364.222 644.275 362.629 642.681C361.035 641.088 360.139 638.927 360.136 636.674V231.674C360.139 229.42 361.035 227.26 362.629 225.666C364.222 224.073 366.383 223.176 368.636 223.174H706.636C708.89 223.176 711.05 224.073 712.644 225.666C714.237 227.26 715.134 229.42 715.136 231.674V636.674C715.134 638.927 714.237 641.088 712.644 642.681C711.05 644.275 708.89 645.171 706.636 645.174Z" fill="#D0EDE9"/>
<path d="M551.136 203.174H340.636C336.13 203.18 331.809 204.973 328.622 208.16C325.436 211.347 323.643 215.667 323.636 220.174V627.974L325.636 627.364V220.174C325.641 216.197 327.223 212.385 330.035 209.573C332.847 206.761 336.659 205.179 340.636 205.174H551.756L551.136 203.174ZM734.636 203.174H340.636C336.13 203.18 331.809 204.973 328.622 208.16C325.436 211.347 323.643 215.667 323.636 220.174V678.174C323.643 682.681 325.436 687.001 328.622 690.188C331.809 693.374 336.13 695.167 340.636 695.174H734.636C739.143 695.167 743.463 693.374 746.65 690.188C749.837 687.001 751.63 682.681 751.636 678.174V220.174C751.63 215.667 749.837 211.347 746.65 208.16C743.463 204.973 739.143 203.18 734.636 203.174ZM749.636 678.174C749.631 682.151 748.049 685.963 745.237 688.775C742.425 691.587 738.613 693.169 734.636 693.174H340.636C336.659 693.169 332.847 691.587 330.035 688.775C327.223 685.963 325.641 682.151 325.636 678.174V220.174C325.641 216.197 327.223 212.385 330.035 209.573C332.847 206.761 336.659 205.179 340.636 205.174H734.636C738.613 205.179 742.425 206.761 745.237 209.573C748.049 212.385 749.631 216.197 749.636 220.174V678.174Z" fill="#3F3D56"/>
<path d="M629.636 247.174H445.636C443.25 247.171 440.963 246.222 439.275 244.535C437.588 242.848 436.639 240.56 436.636 238.174V194.174C436.639 191.788 437.588 189.5 439.276 187.813C440.963 186.126 443.25 185.177 445.636 185.174H629.636C632.023 185.177 634.31 186.126 635.997 187.813C637.685 189.5 638.634 191.788 638.636 194.174V238.174C638.634 240.56 637.685 242.848 635.997 244.535C634.31 246.222 632.023 247.171 629.636 247.174Z" fill="#00BFA6"/>
<path d="M537.636 188.174C548.682 188.174 557.636 179.22 557.636 168.174C557.636 157.128 548.682 148.174 537.636 148.174C526.591 148.174 517.636 157.128 517.636 168.174C517.636 179.22 526.591 188.174 537.636 188.174Z" fill="#00BFA6"/>
<path d="M537.636 180.356C544.364 180.356 549.818 174.902 549.818 168.174C549.818 161.446 544.364 155.992 537.636 155.992C530.908 155.992 525.454 161.446 525.454 168.174C525.454 174.902 530.908 180.356 537.636 180.356Z" fill="white"/>
<path d="M175.934 879V816H184.664L221.294 865.05C220.814 861.39 220.454 857.16 220.214 852.36C220.034 847.56 219.944 842.34 219.944 836.7V816H229.664V879H220.754L184.124 830.94C184.544 836.16 184.874 840.21 185.114 843.09C185.354 845.91 185.504 848.04 185.564 849.48C185.624 850.86 185.654 851.97 185.654 852.81V879H175.934ZM266.201 879.9C261.581 879.9 257.441 878.85 253.781 876.75C250.181 874.59 247.331 871.68 245.231 868.02C243.131 864.3 242.081 860.07 242.081 855.33C242.081 850.59 243.131 846.39 245.231 842.73C247.331 839.01 250.181 836.1 253.781 834C257.441 831.84 261.581 830.76 266.201 830.76C270.761 830.76 274.841 831.84 278.441 834C282.101 836.1 284.981 839.01 287.081 842.73C289.181 846.39 290.231 850.59 290.231 855.33C290.231 860.07 289.181 864.3 287.081 868.02C284.981 871.68 282.101 874.59 278.441 876.75C274.841 878.85 270.761 879.9 266.201 879.9ZM266.201 871.44C269.021 871.44 271.541 870.75 273.761 869.37C275.981 867.93 277.721 866.01 278.981 863.61C280.241 861.15 280.841 858.39 280.781 855.33C280.841 852.21 280.241 849.45 278.981 847.05C277.721 844.59 275.981 842.67 273.761 841.29C271.541 839.91 269.021 839.22 266.201 839.22C263.381 839.22 260.831 839.94 258.551 841.38C256.331 842.76 254.591 844.68 253.331 847.14C252.071 849.54 251.471 852.27 251.531 855.33C251.471 858.39 252.071 861.15 253.331 863.61C254.591 866.01 256.331 867.93 258.551 869.37C260.831 870.75 263.381 871.44 266.201 871.44ZM327.897 879V816H352.557C358.557 816 363.747 817.32 368.127 819.96C372.567 822.6 375.987 826.29 378.387 831.03C380.847 835.77 382.077 841.26 382.077 847.5C382.077 853.8 380.877 859.32 378.477 864.06C376.077 868.74 372.657 872.4 368.217 875.04C363.837 877.68 358.617 879 352.557 879H327.897ZM352.107 825.36H337.617V869.64H352.107C358.467 869.64 363.387 867.69 366.867 863.79C370.407 859.83 372.177 854.4 372.177 847.5C372.177 840.66 370.407 835.26 366.867 831.3C363.327 827.34 358.407 825.36 352.107 825.36ZM411.061 879.9C407.161 879.9 403.591 878.82 400.351 876.66C397.171 874.5 394.621 871.56 392.701 867.84C390.781 864.12 389.821 859.92 389.821 855.24C389.821 850.5 390.781 846.3 392.701 842.64C394.681 838.92 397.321 836.01 400.621 833.91C403.981 831.81 407.731 830.76 411.871 830.76C415.411 830.76 418.531 831.54 421.231 833.1C423.991 834.6 426.091 836.55 427.531 838.95V831.75H436.891V879H427.531V871.71C425.911 873.99 423.601 875.94 420.601 877.56C417.661 879.12 414.481 879.9 411.061 879.9ZM413.491 871.35C416.311 871.35 418.801 870.66 420.961 869.28C423.121 867.9 424.801 866.01 426.001 863.61C427.261 861.15 427.891 858.36 427.891 855.24C427.891 852.18 427.261 849.45 426.001 847.05C424.801 844.65 423.121 842.76 420.961 841.38C418.801 840 416.311 839.31 413.491 839.31C410.731 839.31 408.271 840 406.111 841.38C404.011 842.76 402.331 844.65 401.071 847.05C399.871 849.45 399.271 852.18 399.271 855.24C399.271 858.36 399.871 861.15 401.071 863.61C402.331 866.01 404.011 867.9 406.111 869.28C408.271 870.66 410.731 871.35 413.491 871.35ZM455.684 879V840.75H445.874V831.75H455.684V819.69H464.954V831.75H475.934V840.75H464.954V879H455.684ZM502.116 879.9C498.216 879.9 494.646 878.82 491.406 876.66C488.226 874.5 485.676 871.56 483.756 867.84C481.836 864.12 480.876 859.92 480.876 855.24C480.876 850.5 481.836 846.3 483.756 842.64C485.736 838.92 488.376 836.01 491.676 833.91C495.036 831.81 498.786 830.76 502.926 830.76C506.466 830.76 509.586 831.54 512.286 833.1C515.046 834.6 517.146 836.55 518.586 838.95V831.75H527.946V879H518.586V871.71C516.966 873.99 514.656 875.94 511.656 877.56C508.716 879.12 505.536 879.9 502.116 879.9ZM504.546 871.35C507.366 871.35 509.856 870.66 512.016 869.28C514.176 867.9 515.856 866.01 517.056 863.61C518.316 861.15 518.946 858.36 518.946 855.24C518.946 852.18 518.316 849.45 517.056 847.05C515.856 844.65 514.176 842.76 512.016 841.38C509.856 840 507.366 839.31 504.546 839.31C501.786 839.31 499.326 840 497.166 841.38C495.066 842.76 493.386 844.65 492.126 847.05C490.926 849.45 490.326 852.18 490.326 855.24C490.326 858.36 490.926 861.15 492.126 863.61C493.386 866.01 495.066 867.9 497.166 869.28C499.326 870.66 501.786 871.35 504.546 871.35ZM568.454 879V816H609.314V825.36H578.174V842.82H605.264V852.18H578.174V879H568.454ZM640.176 879.9C635.556 879.9 631.416 878.85 627.756 876.75C624.156 874.59 621.306 871.68 619.206 868.02C617.106 864.3 616.056 860.07 616.056 855.33C616.056 850.59 617.106 846.39 619.206 842.73C621.306 839.01 624.156 836.1 627.756 834C631.416 831.84 635.556 830.76 640.176 830.76C644.736 830.76 648.816 831.84 652.416 834C656.076 836.1 658.956 839.01 661.056 842.73C663.156 846.39 664.206 850.59 664.206 855.33C664.206 860.07 663.156 864.3 661.056 868.02C658.956 871.68 656.076 874.59 652.416 876.75C648.816 878.85 644.736 879.9 640.176 879.9ZM640.176 871.44C642.996 871.44 645.516 870.75 647.736 869.37C649.956 867.93 651.696 866.01 652.956 863.61C654.216 861.15 654.816 858.39 654.756 855.33C654.816 852.21 654.216 849.45 652.956 847.05C651.696 844.59 649.956 842.67 647.736 841.29C645.516 839.91 642.996 839.22 640.176 839.22C637.356 839.22 634.806 839.94 632.526 841.38C630.306 842.76 628.566 844.68 627.306 847.14C626.046 849.54 625.446 852.27 625.506 855.33C625.446 858.39 626.046 861.15 627.306 863.61C628.566 866.01 630.306 867.93 632.526 869.37C634.806 870.75 637.356 871.44 640.176 871.44ZM690.867 879.9C685.827 879.9 681.807 878.19 678.807 874.77C675.807 871.35 674.307 866.73 674.307 860.91V831.75H683.577V858.39C683.577 862.53 684.537 865.8 686.457 868.2C688.437 870.6 691.167 871.8 694.647 871.8C698.067 871.8 700.887 870.72 703.107 868.56C705.387 866.4 706.527 863.61 706.527 860.19V831.75H715.797V879H706.527V871.44C704.967 873.96 702.777 876 699.957 877.56C697.197 879.12 694.167 879.9 690.867 879.9ZM728.799 879V831.75H738.069V839.13C739.629 836.79 741.819 834.81 744.639 833.19C747.519 831.57 750.489 830.76 753.549 830.76C764.349 830.76 769.749 837.24 769.749 850.2V879H760.479V850.83C760.479 842.73 757.149 838.86 750.489 839.22C748.149 839.22 746.019 839.73 744.099 840.75C742.239 841.71 740.769 843.03 739.689 844.71C738.609 846.39 738.069 848.28 738.069 850.38V879H728.799ZM802.035 879.9C797.715 879.9 793.845 878.85 790.425 876.75C787.065 874.59 784.395 871.68 782.415 868.02C780.435 864.3 779.445 860.07 779.445 855.33C779.445 850.59 780.405 846.39 782.325 842.73C784.305 839.01 786.975 836.1 790.335 834C793.695 831.84 797.505 830.76 801.765 830.76C804.885 830.76 807.825 831.42 810.585 832.74C813.405 834.06 815.655 835.68 817.335 837.6V812.4H826.605V879H817.335V872.52C815.895 874.56 813.765 876.3 810.945 877.74C808.125 879.18 805.155 879.9 802.035 879.9ZM803.295 871.89C806.115 871.89 808.605 871.17 810.765 869.73C812.925 868.29 814.605 866.34 815.805 863.88C817.065 861.36 817.695 858.51 817.695 855.33C817.695 852.15 817.065 849.33 815.805 846.87C814.605 844.35 812.925 842.37 810.765 840.93C808.605 839.49 806.115 838.77 803.295 838.77C800.475 838.77 797.985 839.49 795.825 840.93C793.665 842.37 791.955 844.35 790.695 846.87C789.495 849.33 788.895 852.15 788.895 855.33C788.895 858.51 789.495 861.36 790.695 863.88C791.955 866.34 793.665 868.29 795.825 869.73C797.985 871.17 800.475 871.89 803.295 871.89Z" fill="#323232"/>
</svg>
